<?xml version="1.0" standalone="no"?>
<!DOCTYPE svg PUBLIC "-//W3C//DTD SVG 20010904//EN"
 "http://www.w3.org/TR/2001/REC-SVG-20010904/DTD/svg10.dtd">
<svg version="1.0" xmlns="http://www.w3.org/2000/svg"
 width="3134.000000pt" height="3134.000000pt" viewBox="0 0 3134.000000 3134.000000"
 preserveAspectRatio="xMidYMid meet">
<metadata>
Created by potrace 1.16, written by Peter Selinger 2001-2019
</metadata>
<g transform="translate(0.000000,3134.000000) scale(0.100000,-0.100000)"
fill="#000000" stroke="none">
<path d="M15135 31334 c-38 -2 -167 -8 -285 -14 -1695 -83 -3400 -455 -4990
-1090 -1587 -633 -3090 -1543 -4385 -2655 -585 -502 -1208 -1125 -1710 -1710
-2073 -2414 -3365 -5425 -3684 -8580 -61 -599 -76 -918 -76 -1615 0 -594 7
-793 41 -1225 197 -2524 981 -4912 2317 -7060 490 -787 1056 -1535 1715 -2265
361 -399 954 -975 1397 -1355 1295 -1112 2798 -2022 4385 -2655 1218 -486
2504 -819 3800 -984 713 -91 1209 -121 2010 -121 594 0 793 7 1225 41 2524
197 4912 981 7060 2317 787 490 1536 1057 2265 1715 251 227 815 791 1042
1042 853 945 1522 1879 2138 2986 151 270 462 895 594 1194 727 1639 1160
3352 1300 5145 34 433 41 631 41 1225 0 593 -7 796 -41 1225 -197 2524 -981
4912 -2317 7060 -401 645 -905 1331 -1402 1910 -502 585 -1125 1208 -1710
1710 -1530 1313 -3327 2331 -5235 2965 -1341 446 -2625 690 -4110 781 -168 10
-1239 20 -1385 13z m7135 -10590 c0 -4 -52 -272 -115 -596 -63 -324 -115 -593
-115 -598 0 -6 -267 -10 -740 -10 -473 0 -740 4 -740 10 0 5 52 274 115 598
63 324 115 592 115 596 0 3 333 6 740 6 407 0 740 -3 740 -6z m5470 -3 c0 -5
-52 -273 -115 -597 -63 -324 -115 -592 -115 -596 0 -5 -333 -8 -740 -8 -407 0
-740 3 -740 6 0 3 52 272 115 597 63 325 115 594 115 599 0 4 333 8 740 8 418
0 740 -4 740 -9z m-20900 -30 c0 -21 -679 -3612 -685 -3621 -7 -12 -1351 -14
-1358 -2 -2 4 90 502 204 1107 114 605 267 1415 339 1800 72 385 133 706 135
713 3 9 149 12 685 12 398 0 680 -4 680 -9z m4077 -28 c-10 -61 -1777 -9126
-1783 -9145 -5 -17 -46 -18 -685 -18 -480 0 -679 3 -679 11 0 6 171 887 379
1957 209 1071 383 1964 386 1985 l7 37 -706 0 c-388 0 -706 3 -706 7 0 10 270
1426 276 1446 5 16 48 17 714 17 l708 0 10 48 c6 26 169 859 362 1852 193 993
353 1813 356 1823 5 16 46 17 686 17 l681 0 -6 -37z m8453 -1150 c0 -23 -1337
-6793 -1343 -6799 -2 -2 -309 -3 -683 -2 l-679 3 666 3375 c367 1856 670 3390
674 3408 l6 32 679 0 c641 0 680 -1 680 -17z m5470 -3 c0 -16 -1317 -6704
-1335 -6777 l-5 -23 -680 0 c-552 0 -680 2 -680 13 0 7 302 1540 670 3406 369
1866 670 3395 670 3397 0 2 306 4 680 4 671 0 680 0 680 -20z m-8474 -927 c-3
-16 -314 -1598 -691 -3518 -377 -1919 -688 -3498 -691 -3507 -5 -17 -46 -18
-685 -18 -640 0 -679 1 -678 18 0 9 244 1257 542 2772 l543 2755 -1604 3
-1604 2 5 23 c3 12 62 330 132 707 69 377 130 709 136 738 l10 52 2296 0 2295
0 -6 -27z m-3829 -2975 c-3 -13 -179 -925 -391 -2028 -212 -1103 -388 -2011
-391 -2017 -3 -10 -150 -13 -685 -13 l-682 0 6 28 c3 15 175 906 381 1981 369
1919 391 2033 400 2059 3 9 150 12 686 12 l681 0 -5 -22z m-6697 -184 c0 -15
-773 -4006 -787 -4061 l-5 -23 -679 0 c-626 0 -679 1 -679 17 0 9 131 689 291
1512 159 823 335 1728 390 2011 54 283 101 525 104 538 l5 22 680 0 c620 0
680 -1 680 -16z m14920 -2694 c0 -10 -217 -1127 -227 -1167 l-5 -23 -740 0
-740 0 5 23 c9 36 227 1158 227 1168 0 5 301 9 740 9 469 0 740 -4 740 -10z
m5470 -2 c0 -12 -213 -1113 -225 -1165 l-5 -23 -741 0 c-589 0 -740 3 -737 13
3 6 56 276 119 600 l114 587 737 0 c584 0 738 -3 738 -12z m-19380 -3034 l0
-186 43 36 c171 146 173 147 217 144 l42 -3 -125 -105 c-69 -58 -126 -107
-126 -110 0 -3 60 -59 134 -125 l133 -120 -40 -3 c-42 -3 -27 -15 -224 161
l-54 49 0 -106 0 -106 -30 0 -30 0 0 330 0 330 30 0 30 0 0 -186z m1410 91 l0
-95 50 0 c49 0 50 -1 50 -30 0 -29 -1 -30 -50 -30 l-50 0 0 -205 0 -205 -30 0
-30 0 0 205 0 205 -40 0 c-38 0 -40 2 -40 30 0 28 2 30 40 30 l40 0 0 95 0 95
30 0 30 0 0 -95z m410 -42 l0 -137 33 31 c46 44 89 63 142 63 53 0 89 -16 127
-57 39 -42 48 -91 48 -265 l0 -158 -30 0 -30 0 0 143 c0 78 -4 159 -9 180 -24
103 -135 128 -221 50 -51 -46 -60 -80 -60 -240 l0 -133 -30 0 -30 0 0 330 0
330 30 0 30 0 0 -137z m4400 -193 l0 -330 -30 0 c-28 0 -30 3 -30 36 l0 35
-33 -25 c-129 -99 -302 -63 -372 77 -80 162 35 356 213 357 63 0 106 -16 155
-60 l37 -32 0 136 0 136 30 0 30 0 0 -330z m2770 0 l0 -330 -30 0 c-28 0 -30
3 -30 36 l0 35 -33 -25 c-129 -99 -302 -63 -372 77 -80 162 35 356 213 357 63
0 106 -16 155 -60 l37 -32 0 136 0 136 30 0 30 0 0 -330z m3410 0 l0 -330 -30
0 -30 0 0 330 0 330 30 0 30 0 0 -330z m1030 194 l0 -136 41 36 c54 45 97 59
169 54 80 -6 144 -46 188 -118 28 -47 32 -63 32 -125 0 -62 -4 -78 -32 -125
-44 -72 -108 -112 -188 -118 -73 -5 -122 11 -171 55 l-39 35 0 -41 c0 -39 -2
-41 -30 -41 l-30 0 0 330 0 330 30 0 30 0 0 -136z m5540 -194 l0 -330 -30 0
c-28 0 -30 3 -30 36 l0 35 -33 -25 c-129 -99 -302 -63 -372 77 -80 162 35 356
213 357 63 0 106 -16 155 -60 l37 -32 0 136 0 136 30 0 30 0 0 -330z m-11579
287 c30 -14 70 -42 89 -62 l35 -36 -25 -19 c-25 -19 -25 -19 -55 9 -106 101
-293 102 -399 3 -104 -98 -100 -295 8 -390 57 -50 101 -65 191 -66 88 0 133
17 198 73 32 29 33 29 57 11 l25 -19 -35 -36 c-19 -20 -60 -48 -90 -63 -49
-24 -66 -27 -160 -27 -102 0 -107 1 -170 36 -112 61 -170 161 -170 289 0 88
22 149 76 209 83 93 155 122 285 118 69 -2 96 -8 140 -30z m4560 0 c30 -14 70
-42 89 -62 l35 -36 -25 -19 c-25 -19 -25 -19 -55 9 -106 101 -293 102 -399 3
-104 -98 -100 -295 8 -390 57 -50 101 -65 191 -66 88 0 133 17 198 73 32 29
33 29 57 11 l25 -19 -35 -36 c-19 -20 -60 -48 -90 -63 -49 -24 -66 -27 -160
-27 -102 0 -107 1 -170 36 -112 61 -170 161 -170 289 0 88 22 149 76 209 83
93 155 122 285 118 69 -2 96 -8 140 -30z m5154 8 c23 -13 50 -36 60 -51 17
-26 17 -27 -6 -45 -24 -18 -24 -18 -62 19 -32 32 -45 37 -83 37 -36 0 -50 -5
-65 -24 -42 -52 -17 -108 79 -180 139 -102 187 -180 164 -260 -24 -80 -94
-131 -177 -131 -72 0 -132 38 -179 112 -17 26 -17 27 10 41 27 14 29 14 56
-24 36 -50 84 -74 131 -65 42 8 83 46 90 84 11 55 -13 86 -178 226 -65 56 -89
103 -82 158 15 109 141 163 242 103z m-19345 -120 l0 -135 165 0 165 0 0 135
0 135 30 0 30 0 0 -320 0 -320 -30 0 -30 0 0 155 0 155 -165 0 -165 0 0 -155
0 -155 -30 0 -30 0 0 320 0 320 30 0 30 0 0 -135z m17437 109 c45 -33 73 -82
73 -126 0 -47 -24 -102 -54 -124 -11 -9 -16 -18 -11 -20 35 -14 78 -48 96 -76
30 -48 23 -143 -14 -191 -46 -60 -95 -77 -230 -77 l-117 0 0 321 0 321 114 -4
c97 -2 119 -6 143 -24z m463 -294 l0 -320 -30 0 -30 0 0 320 0 320 30 0 30 0
0 -320z m590 290 l0 -30 -75 0 -75 0 0 -290 0 -290 -30 0 -30 0 0 290 0 290
-75 0 -75 0 0 30 0 30 180 0 180 0 0 -30z m-17492 -146 c20 -8 52 -29 70 -46
l32 -32 0 42 c0 40 1 42 30 42 l30 0 0 -235 0 -235 -30 0 c-28 0 -30 3 -30 35
0 41 -8 44 -40 10 -36 -38 -100 -58 -169 -53 -81 6 -145 46 -188 118 -29 47
-33 63 -33 123 0 108 53 189 152 232 44 19 130 19 176 -1z m812 -9 c41 -20 90
-64 90 -79 0 -6 -9 -17 -21 -24 -18 -11 -24 -9 -55 17 -90 79 -243 60 -305
-38 -36 -55 -38 -116 -8 -178 52 -107 219 -135 314 -52 33 29 35 30 60 13 l26
-17 -23 -24 c-45 -48 -105 -75 -177 -81 -107 -7 -192 31 -247 110 -23 32 -29
54 -32 108 -2 38 1 85 8 105 22 66 92 131 170 156 41 14 161 4 200 -16z m1278
9 c20 -8 52 -29 70 -46 l32 -32 0 42 c0 40 1 42 30 42 l30 0 0 -235 0 -235
-30 0 c-28 0 -30 3 -30 35 0 41 -8 44 -40 10 -36 -38 -100 -58 -169 -53 -81 6
-145 46 -188 118 -29 47 -33 63 -33 123 0 108 53 189 152 232 44 19 130 19
176 -1z m1932 -5 c97 -44 144 -117 144 -224 0 -84 -23 -135 -84 -187 -124
-107 -324 -60 -388 92 -8 19 -14 62 -14 96 -1 177 182 296 342 223z m719 6
c39 -20 78 -69 91 -113 5 -20 10 -108 10 -194 l0 -158 -30 0 -30 0 0 148 c0
81 -4 162 -10 181 -28 99 -136 121 -221 44 -50 -46 -59 -80 -59 -240 l0 -133
-30 0 -30 0 0 235 0 235 30 0 c28 0 30 -2 30 -41 l0 -42 20 26 c46 58 165 86
229 52z m1099 -1 c20 -8 52 -29 70 -46 l32 -32 0 42 c0 40 1 42 30 42 l30 0 0
-235 0 -235 -30 0 c-28 0 -30 3 -30 35 0 41 -8 44 -40 10 -36 -38 -100 -58
-169 -53 -81 6 -145 46 -188 118 -29 47 -33 63 -33 123 0 108 53 189 152 232
44 19 130 19 176 -1z m761 1 c39 -20 78 -69 91 -113 5 -20 10 -108 10 -194 l0
-158 -30 0 -30 0 0 148 c0 81 -4 162 -10 181 -28 99 -136 121 -221 44 -50 -46
-59 -80 -59 -240 l0 -133 -30 0 -30 0 0 235 0 235 30 0 c28 0 30 -2 30 -41 l0
-42 20 26 c46 58 165 86 229 52z m2751 -6 c97 -44 144 -117 144 -224 0 -84
-23 -135 -84 -187 -124 -107 -324 -60 -388 92 -8 19 -14 62 -14 96 -1 177 182
296 342 223z m1819 6 c39 -20 78 -69 91 -113 5 -20 10 -108 10 -194 l0 -158
-30 0 -30 0 0 148 c0 81 -4 162 -10 181 -28 99 -136 121 -221 44 -50 -46 -59
-80 -59 -240 l0 -133 -30 0 -30 0 0 235 0 235 30 0 c28 0 30 -2 30 -41 l0 -42
20 26 c46 58 165 86 229 52z m694 2 c18 -8 47 -26 65 -41 l32 -28 0 36 c0 35
1 36 36 36 l36 0 -3 -243 c-4 -237 -5 -244 -30 -292 -18 -35 -39 -59 -74 -80
-44 -28 -56 -30 -139 -30 -116 0 -174 25 -218 94 l-29 46 32 3 c24 3 37 -3 53
-21 41 -49 74 -62 155 -61 124 0 172 37 179 136 l5 61 -39 -30 c-122 -95 -294
-57 -367 81 -32 62 -30 157 6 219 62 105 198 156 300 114z m7496 -2 c39 -20
78 -69 91 -113 5 -20 10 -108 10 -194 l0 -158 -30 0 -30 0 0 148 c0 81 -4 162
-10 181 -28 99 -136 121 -221 44 -50 -46 -59 -80 -59 -240 l0 -133 -30 0 -30
0 0 235 0 235 30 0 c28 0 30 -2 30 -41 l0 -42 20 26 c46 58 165 86 229 52z
m1349 6 c10 -6 10 -13 2 -32 -9 -20 -18 -24 -52 -24 -31 0 -45 -6 -64 -28 -35
-41 -44 -89 -44 -244 l0 -143 -35 0 -35 0 0 235 0 235 35 0 c33 0 35 -2 36
-32 0 -18 3 -27 6 -20 16 41 116 76 151 53z m-10128 -236 l0 -235 -30 0 -30 0
0 235 0 235 30 0 30 0 0 -235z m3392 71 c3 -148 5 -167 24 -193 32 -44 81 -65
136 -59 109 12 128 50 128 260 l0 156 31 0 31 0 -4 -178 c-3 -174 -4 -179 -30
-219 -40 -60 -100 -86 -188 -81 -59 3 -74 8 -107 34 -72 58 -78 78 -81 272
l-4 172 30 0 30 0 4 -164z m4798 -71 l0 -235 -30 0 -30 0 0 235 0 235 30 0 30
0 0 -235z m2210 0 l0 -235 -30 0 -30 0 0 235 0 235 30 0 30 0 0 -235z"/>
<path d="M12768 9651 c-47 -15 -85 -49 -107 -94 -97 -200 181 -367 316 -190
25 32 28 45 28 108 0 63 -3 76 -28 108 -15 20 -42 44 -58 53 -37 19 -115 26
-151 15z"/>
<path d="M15538 9651 c-47 -15 -85 -49 -107 -94 -97 -200 181 -367 316 -190
25 32 28 45 28 108 0 63 -3 76 -28 108 -15 20 -42 44 -58 53 -37 19 -115 26
-151 15z"/>
<path d="M20397 9646 c-50 -19 -76 -42 -98 -91 -24 -51 -24 -109 0 -161 61
-135 265 -136 330 -2 57 119 -16 251 -145 263 -29 3 -64 0 -87 -9z"/>
<path d="M25518 9651 c-47 -15 -85 -49 -107 -94 -97 -200 181 -367 316 -190
25 32 28 45 28 108 0 63 -3 76 -28 108 -15 20 -42 44 -58 53 -37 19 -115 26
-151 15z"/>
<path d="M21850 9716 l0 -106 38 0 c110 1 165 41 160 118 -4 63 -35 85 -128
90 l-70 4 0 -106z"/>
<path d="M21850 9425 l0 -128 83 5 c125 8 168 38 169 119 1 80 -51 118 -174
126 l-78 6 0 -128z"/>
<path d="M5468 9650 c-72 -21 -128 -99 -128 -175 0 -56 35 -122 83 -153 33
-22 52 -27 101 -27 105 1 175 60 184 156 13 139 -107 239 -240 199z"/>
<path d="M7558 9650 c-72 -21 -128 -99 -128 -175 0 -56 35 -122 83 -153 33
-22 52 -27 101 -27 105 1 175 60 184 156 13 139 -107 239 -240 199z"/>
<path d="M9467 9646 c-80 -29 -122 -97 -115 -187 13 -184 259 -230 345 -64 20
37 19 124 0 161 -20 39 -55 70 -99 89 -45 18 -81 19 -131 1z"/>
<path d="M11308 9650 c-72 -21 -128 -99 -128 -175 0 -56 35 -122 83 -153 33
-22 52 -27 101 -27 105 1 175 60 184 156 13 139 -107 239 -240 199z"/>
<path d="M14797 9646 c-80 -29 -122 -97 -115 -187 13 -184 259 -230 345 -64
20 37 19 124 0 161 -20 39 -55 70 -99 89 -45 18 -81 19 -131 1z"/>
<path d="M17327 9646 c-77 -28 -117 -88 -117 -172 0 -91 58 -157 150 -170 163
-22 271 135 188 273 -40 67 -142 98 -221 69z"/>
</g>
</svg>
